<svg xmlns="http://www.w3.org/2000/svg" viewBox="0 0 400 300" width="400" height="300">
  <defs>
    <g id="shrimp">
      <path d="M110 170 Q140 100 210 120 Q260 135 250 175 Q220 150 180 170 Q150 195 110 170Z" fill="#e6a23c" stroke="#b9741a" stroke-width="3"/>
      <path d="M105 172 L78 192 L96 160Z" fill="#e8590c" stroke="#b83e00" stroke-width="2"/>
      <circle cx="170" cy="135" r="3" fill="#b9741a"/><circle cx="200" cy="140" r="3" fill="#b9741a"/><circle cx="225" cy="150" r="3" fill="#b9741a"/>
    </g>
  </defs>
  <rect width="400" height="300" fill="#e3efe8"/>
  <circle cx="200" cy="160" r="125" fill="#ffffff" stroke="#cfd8dc" stroke-width="6"/>
  <circle cx="200" cy="160" r="100" fill="none" stroke="#eceff1" stroke-width="4"/>
  <use href="#shrimp" x="0" y="-35"/>
  <use href="#shrimp" x="5" y="35"/>
  <circle cx="295" cy="125" r="22" fill="#f0b45a" stroke="#c98a2b" stroke-width="3"/>
  <circle cx="288" cy="120" r="3" fill="#c98a2b"/><circle cx="302" cy="130" r="3" fill="#c98a2b"/>
  <circle cx="305" cy="175" r="22" fill="#f0b45a" stroke="#c98a2b" stroke-width="3"/>
  <circle cx="298" cy="170" r="3" fill="#c98a2b"/><circle cx="312" cy="180" r="3" fill="#c98a2b"/>
  <ellipse cx="150" cy="235" rx="28" ry="12" fill="#e6c25a" stroke="#b8912a" stroke-width="3" transform="rotate(-20 150 235)"/>
  <circle cx="265" cy="240" r="18" fill="#5d3a1a" stroke="#3e2410" stroke-width="4"/>
  <circle cx="265" cy="240" r="11" fill="#7b4a22"/>
</svg>
